<svg width="368" height="494" viewBox="0 0 368 494" fill="none" xmlns="http://www.w3.org/2000/svg">
<path d="M294.25 426.625H79.75C70.2685 426.625 61.1754 422.714 54.4709 415.751C47.7665 408.789 44 399.346 44 389.5V247.188C44 237.341 47.7665 227.898 54.4709 220.936C61.1754 213.974 70.2685 210.062 79.75 210.062H294.25C303.731 210.062 312.825 213.974 319.529 220.936C326.234 227.898 330 237.341 330 247.188V389.5C330 399.346 326.234 408.789 319.529 415.751C312.825 422.714 303.731 426.625 294.25 426.625ZM79.75 234.812C76.5895 234.812 73.5585 236.116 71.3236 238.437C69.0888 240.758 67.8333 243.905 67.8333 247.188V389.5C67.8333 392.782 69.0888 395.93 71.3236 398.25C73.5585 400.571 76.5895 401.875 79.75 401.875H294.25C297.411 401.875 300.442 400.571 302.676 398.25C304.911 395.93 306.167 392.782 306.167 389.5V247.188C306.167 243.905 304.911 240.758 302.676 238.437C300.442 236.116 297.411 234.812 294.25 234.812H79.75Z" fill="#81B2D9"/>
<path d="M246.583 222.25H222.75V172.75H151.25V222.25H127.417V166.562C127.417 161.639 129.3 156.918 132.652 153.437C136.004 149.956 140.551 148 145.292 148H228.708C233.449 148 237.996 149.956 241.348 153.437C244.7 156.918 246.583 161.639 246.583 166.562V222.25Z" fill="#81B2D9"/>
<path d="M139.333 296.688V333.812H234.667V296.688H139.333Z" fill="#A6C7FF"/>
<path d="M169.125 364.75H204.875V265.75H169.125V364.75Z" fill="#A6C7FF"/>
</svg>
