<svg width="230" height="45" viewBox="0 0 230 45" fill="none" xmlns="http://www.w3.org/2000/svg">
<path d="M1.31366 28.7528H18.1258V39.3518C18.1258 39.8073 18.717 40.18 19.4395 40.18H31.5277C32.2502 40.18 32.8414 39.8073 32.8414 39.3518V28.7528H49.6535C50.376 28.7528 50.9672 28.3801 50.9672 27.9246V20.3054C50.9672 19.8483 50.376 19.4773 49.6535 19.4773H32.8414V8.87664C32.8414 8.41948 32.2502 8.04846 31.5277 8.04846H19.4395C18.717 8.04846 18.1258 8.41948 18.1258 8.87664V19.4773H1.31366C0.591145 19.4773 0 19.8483 0 20.3054V27.9246C0 28.3868 0.58589 28.7528 1.31366 28.7528ZM2.62731 21.1369H19.4395C20.162 21.1369 20.7531 20.7642 20.7531 20.3087V9.70812H30.2141V20.3087C30.2141 20.7642 30.8052 21.1369 31.5277 21.1369H48.3399V27.0981H31.5277C30.8052 27.0981 30.2141 27.4741 30.2141 27.9263V38.5269H20.7531V27.9263C20.7531 27.4741 20.162 27.0981 19.4395 27.0981H2.62731V21.1369Z" fill="#81B2D9"/>
<path d="M74.4055 20.7692C75.2173 21.2793 76.2893 21.5609 77.4269 21.5609C78.5645 21.5609 79.6417 21.281 80.4457 20.7692L82.0431 19.7621L85.6688 22.0479C83.2122 25.2049 84.1896 29.0261 88.1778 31.5404L105.623 42.5402C108.103 44.1021 111.403 44.9668 114.919 44.9668C114.937 44.9668 114.953 44.9668 114.974 44.9668C114.976 44.9668 114.982 44.9668 114.984 44.9668C115.003 44.9668 115.018 44.9668 115.039 44.9668C118.547 44.9668 121.847 44.1038 124.33 42.5402L141.772 31.5404C145.768 29.0211 146.746 25.2049 144.281 22.0479L147.91 19.7621L149.51 20.7692C150.316 21.2793 151.388 21.5609 152.526 21.5609C153.661 21.5609 154.738 21.281 155.545 20.7692L163.382 15.8233C165.058 14.7715 165.058 13.0638 163.382 12.0121L145.592 0.796928C143.99 -0.218413 141.16 -0.221726 139.552 0.796928L131.702 5.74444C130.039 6.79456 130.039 8.50392 131.702 9.55405L134.001 11.0033L130.588 13.1566C125.606 11.2916 119.269 11.7189 114.987 14.2316C114.887 14.1736 114.79 14.1123 114.693 14.056C110.376 11.6692 104.218 11.3379 99.3492 13.1566L95.9337 11.0033L98.2299 9.5557C99.0418 9.04555 99.4858 8.37141 99.4858 7.6509C99.4858 6.93039 99.0418 6.2546 98.2299 5.74776L90.3848 0.800243C88.769 -0.220068 85.9499 -0.216755 84.3393 0.800243L66.5498 12.0154C64.8841 13.0672 64.8841 14.7749 66.5498 15.8266L74.4055 20.7692ZM133.57 6.91382L141.415 1.96631C141.72 1.77086 142.13 1.65989 142.571 1.65989C143.012 1.65989 143.417 1.76755 143.724 1.96631L161.514 13.1814C162.155 13.5856 162.155 14.2465 161.514 14.6506L153.669 19.5981C153.049 19.9857 151.969 19.9857 151.338 19.5981L142.647 14.1189L136.775 10.4137C136.775 10.4137 136.77 10.4137 136.77 10.412L133.544 8.37969C132.931 7.97554 132.931 7.31632 133.57 6.91382ZM130.01 14.8858C130.527 15.1194 131.247 15.0829 131.704 14.7964L135.871 12.1694L140.84 15.2966L146.047 18.5845L141.73 21.3091C141.31 21.5742 141.223 21.9883 141.531 22.3112C143.969 24.915 143.301 28.231 139.915 30.3661L136.476 32.5326C136.573 32.1218 136.625 31.7044 136.625 31.2837C136.625 30.2269 136.297 29.2066 135.701 28.2526C135.68 28.2211 135.674 28.188 135.651 28.1565C135.377 27.7391 135.033 27.3498 134.655 26.959C134.576 26.8745 134.526 26.7867 134.44 26.7072C133.948 26.25 133.399 25.8144 132.766 25.4185L122.125 18.717C122.125 18.717 122.125 18.7153 122.12 18.7153C121.616 18.3923 120.775 18.3923 120.263 18.7153L109.149 25.725C106.551 27.3581 102.497 27.5337 99.5699 26.2451L115.901 15.9542C115.901 15.9542 115.901 15.9542 115.901 15.9525C115.901 15.9509 115.901 15.9525 115.901 15.9525L116.474 15.5898C120.123 13.304 125.814 13.0059 130.01 14.8858ZM94.084 12.1744L98.2509 14.8014C98.7055 15.0879 99.4201 15.1227 99.9456 14.8908C103.939 13.097 109.294 13.2692 112.964 15.2999C113.016 15.3281 113.061 15.3579 113.111 15.386L96.7061 25.7299C96.1938 26.0496 96.1938 26.578 96.7061 26.901C98.6792 28.1466 101.267 28.7677 103.868 28.7677C106.456 28.7677 109.052 28.1466 111.025 26.901L121.222 20.476L130.927 26.5946C131.431 26.9142 131.873 27.2604 132.267 27.6298C132.338 27.6977 132.382 27.7755 132.445 27.8434C132.734 28.1515 133.026 28.4613 133.236 28.7842C133.252 28.8174 133.265 28.8488 133.281 28.882C134.232 30.429 134.232 32.1533 133.281 33.6953C133.265 33.7251 133.252 33.7566 133.236 33.7897C133.026 34.116 132.742 34.4307 132.445 34.7338C132.382 34.8051 132.338 34.8796 132.267 34.9475C131.883 35.3136 131.439 35.6597 130.927 35.9827L122.383 41.3692C120.407 42.6114 117.78 43.3038 114.99 43.3104C114.969 43.3104 114.953 43.3104 114.934 43.3104C112.126 43.3104 109.485 42.6214 107.496 41.3692L90.0511 30.3727C86.6619 28.2343 85.9972 24.9216 88.4379 22.3179C88.7401 21.9932 88.6586 21.5791 88.2356 21.3141L83.919 18.5927L89.1316 15.3049L94.084 12.1744ZM68.4178 13.1798L86.2074 1.96465C86.5174 1.7692 86.9272 1.65823 87.3686 1.65823C87.8074 1.65823 88.2199 1.76589 88.5273 1.96465L96.375 6.91051C96.6824 7.10762 96.8611 7.36766 96.8611 7.64427C96.8611 7.92088 96.6929 8.18258 96.375 8.37803L87.274 14.1173L81.113 17.9998C81.113 17.9998 81.113 18.0014 81.1104 18.0014L78.5855 19.5932C77.9655 19.9824 76.8804 19.9824 76.2525 19.5932L68.4073 14.6473C67.7689 14.2465 67.7689 13.5856 68.4178 13.1798Z" fill="#81B2D9"/>
<path d="M76.2025 17.3787C77.348 17.3787 78.4199 17.0987 79.2212 16.5886C80.8896 15.5368 80.8896 13.8291 79.2212 12.779C77.6081 11.762 74.789 11.762 73.1758 12.779C71.5101 13.8291 71.5101 15.5368 73.1758 16.5886C73.9955 17.0987 75.0648 17.3787 76.2025 17.3787ZM75.0412 13.9484C75.3512 13.7546 75.7637 13.6436 76.2025 13.6436C76.6412 13.6436 77.0563 13.7513 77.3664 13.9484C78.0048 14.3525 78.0048 15.0134 77.3664 15.4175C76.7463 15.8068 75.6586 15.8068 75.0333 15.4175C74.4001 15.0117 74.4001 14.3542 75.0412 13.9484Z" fill="#81B2D9"/>
<path d="M153.745 17.3787C154.89 17.3787 155.962 17.0987 156.764 16.5886C158.435 15.5368 158.435 13.8291 156.764 12.779C155.151 11.762 152.329 11.762 150.718 12.779C149.047 13.8291 149.047 15.5368 150.718 16.5886C151.53 17.0987 152.605 17.3787 153.745 17.3787ZM152.584 13.9484C152.891 13.7546 153.306 13.6436 153.742 13.6436C154.184 13.6436 154.596 13.7513 154.904 13.9484C155.545 14.3525 155.545 15.0134 154.904 15.4175C154.286 15.8068 153.198 15.8068 152.571 15.4175C151.943 15.0117 151.943 14.3542 152.584 13.9484Z" fill="#81B2D9"/>
<path d="M183.376 26.6359L201.898 38.3082C202.145 38.4672 202.479 38.55 202.828 38.55C203.178 38.55 203.512 38.4622 203.759 38.3082L222.675 26.3808C227.268 24.534 230.003 21.4002 230.003 17.9765C230.003 12.4741 222.901 7.99866 214.176 7.99866C209.788 7.99866 205.692 9.12166 202.708 11.1109C199.726 9.12166 195.627 7.99866 191.245 7.99866C182.517 7.99866 175.426 12.4741 175.426 17.9765C175.405 21.5509 178.455 24.8586 183.376 26.6359ZM191.234 9.655C195.338 9.655 199.137 10.8343 201.667 12.8915C202.169 13.299 203.254 13.2957 203.745 12.8915C206.276 10.8343 210.067 9.655 214.184 9.655C221.464 9.655 227.375 13.3884 227.375 17.9765C227.375 20.8569 225.05 23.4921 221.151 25.0276C221.08 25.0624 220.988 25.0988 220.92 25.1435L202.826 36.5508L185.113 25.3887C185.036 25.334 184.939 25.2843 184.831 25.2495C180.638 23.7754 178.042 20.9944 178.042 17.9765C178.032 13.3884 183.954 9.655 191.234 9.655Z" fill="#81B2D9"/>
</svg>
