<svg width="230" height="145" viewBox="0 0 230 145" fill="none" xmlns="http://www.w3.org/2000/svg">
<path d="M17.1366 71.7092H31.6826V79.7213C31.6826 80.0656 32.194 80.3473 32.8192 80.3473H43.278C43.9031 80.3473 44.4146 80.0656 44.4146 79.7213V71.7092H58.9606C59.5857 71.7092 60.0972 71.4275 60.0972 71.0832V65.3236C60.0972 64.978 59.5857 64.6976 58.9606 64.6976H44.4146V56.6843C44.4146 56.3387 43.9031 56.0582 43.278 56.0582H32.8192C32.194 56.0582 31.6826 56.3387 31.6826 56.6843V64.6976H17.1366C16.5115 64.6976 16 64.978 16 65.3236V71.0832C16 71.4325 16.5069 71.7092 17.1366 71.7092ZM18.2732 65.9522H32.8192C33.4443 65.9522 33.9558 65.6705 33.9558 65.3261V57.3128H42.1414V65.3261C42.1414 65.6705 42.6529 65.9522 43.278 65.9522H57.824V70.4584H43.278C42.6529 70.4584 42.1414 70.7426 42.1414 71.0844V79.0978H33.9558V71.0844C33.9558 70.7426 33.4443 70.4584 32.8192 70.4584H18.2732V65.9522Z" fill="#81B2D9"/>
<path d="M80.3762 65.6742C81.0786 66.0598 82.0061 66.2727 82.9903 66.2727C83.9746 66.2727 84.9066 66.0611 85.6022 65.6742L86.9843 64.9129L90.1213 66.6408C87.9958 69.0272 88.8415 71.9158 92.2921 73.8165L107.386 82.1315C109.532 83.3122 112.387 83.9658 115.428 83.9658C115.444 83.9658 115.458 83.9658 115.476 83.9658C115.478 83.9658 115.483 83.9658 115.485 83.9658C115.501 83.9658 115.515 83.9658 115.533 83.9658C118.568 83.9658 121.423 83.3135 123.571 82.1315L138.662 73.8165C142.12 71.912 142.966 69.0272 140.833 66.6408L143.973 64.9129L145.357 65.6742C146.055 66.0598 146.982 66.2727 147.967 66.2727C148.949 66.2727 149.881 66.0611 150.578 65.6742L157.359 61.9355C158.81 61.1404 158.81 59.8495 157.359 59.0544L141.968 50.5766C140.581 49.8091 138.133 49.8066 136.742 50.5766L129.949 54.3165C128.511 55.1104 128.511 56.4025 129.949 57.1963L131.938 58.2919L128.986 59.9196C124.676 58.5098 119.193 58.8328 115.488 60.7322C115.401 60.6884 115.317 60.6421 115.233 60.5995C111.498 58.7952 106.17 58.5448 101.958 59.9196L99.0025 58.2919L100.989 57.1976C101.692 56.8119 102.076 56.3023 102.076 55.7577C102.076 55.213 101.692 54.7022 100.989 54.3191L94.2016 50.5791C92.8036 49.8078 90.3645 49.8103 88.971 50.5791L73.5794 59.0569C72.1382 59.852 72.1382 61.1429 73.5794 61.938L80.3762 65.6742ZM131.566 55.2005L138.353 51.4606C138.617 51.3128 138.972 51.2289 139.354 51.2289C139.735 51.2289 140.085 51.3103 140.351 51.4606L155.743 59.9384C156.298 60.2439 156.298 60.7435 155.743 61.049L148.955 64.789C148.419 65.0819 147.485 65.0819 146.939 64.789L139.419 60.6471L134.339 57.8462C134.339 57.8462 134.334 57.8462 134.334 57.8449L131.543 56.3086C131.013 56.0031 131.013 55.5048 131.566 55.2005ZM128.486 61.2268C128.933 61.4033 129.556 61.3758 129.952 61.1592L133.557 59.1734L137.855 61.5373L142.361 64.0227L138.626 66.0823C138.262 66.2827 138.187 66.5957 138.453 66.8399C140.563 68.8081 139.985 71.3148 137.055 72.9287L134.08 74.5664C134.164 74.2559 134.209 73.9404 134.209 73.6224C134.209 72.8236 133.925 72.0523 133.409 71.3311C133.391 71.3073 133.386 71.2822 133.366 71.2585C133.13 70.9429 132.832 70.6487 132.504 70.3532C132.436 70.2893 132.393 70.223 132.318 70.1629C131.893 69.8173 131.418 69.488 130.87 69.1888L121.664 64.1228C121.664 64.1228 121.664 64.1216 121.659 64.1216C121.223 63.8774 120.495 63.8774 120.052 64.1216L110.437 69.4204C108.188 70.6549 104.681 70.7877 102.149 69.8136L116.279 62.0344C116.279 62.0344 116.279 62.0344 116.279 62.0331C116.279 62.0319 116.279 62.0331 116.279 62.0331L116.774 61.7589C119.932 60.031 124.855 59.8057 128.486 61.2268ZM97.4022 59.1771L101.007 61.1629C101.401 61.3795 102.019 61.4058 102.474 61.2305C105.929 59.8745 110.562 60.0048 113.737 61.5398C113.783 61.5611 113.821 61.5836 113.864 61.6049L99.6708 69.4242C99.2276 69.6658 99.2276 70.0652 99.6708 70.3094C101.378 71.2509 103.617 71.7205 105.867 71.7205C108.107 71.7205 110.352 71.2509 112.06 70.3094L120.882 65.4526L129.279 70.0777C129.715 70.3194 130.097 70.5811 130.438 70.8603C130.5 70.9116 130.538 70.9705 130.593 71.0218C130.843 71.2547 131.095 71.4888 131.277 71.733C131.291 71.758 131.302 71.7818 131.316 71.8069C132.138 72.9763 132.138 74.2797 131.316 75.4454C131.302 75.4679 131.291 75.4917 131.277 75.5168C131.095 75.7634 130.85 76.0013 130.593 76.2305C130.538 76.2843 130.5 76.3406 130.438 76.392C130.106 76.6687 129.722 76.9304 129.279 77.1745L121.887 81.2463C120.177 82.1854 117.904 82.7087 115.49 82.7137C115.472 82.7137 115.458 82.7137 115.442 82.7137C113.012 82.7137 110.728 82.1929 109.007 81.2463L93.9129 72.9337C90.9805 71.3173 90.4054 68.8131 92.5172 66.8449C92.7786 66.5995 92.7081 66.2864 92.3421 66.0861L88.6073 64.0289L93.1173 61.5436L97.4022 59.1771ZM75.1956 59.9371L90.5873 51.4593C90.8555 51.3116 91.2101 51.2277 91.592 51.2277C91.9716 51.2277 92.3285 51.3091 92.5945 51.4593L99.3844 55.198C99.6504 55.347 99.805 55.5436 99.805 55.7527C99.805 55.9618 99.6595 56.1596 99.3844 56.3074L91.5102 60.6458L86.1796 63.5807C86.1796 63.5807 86.1796 63.5819 86.1773 63.5819L83.9928 64.7852C83.4563 65.0794 82.5175 65.0794 81.9742 64.7852L75.1866 61.0465C74.6342 60.7435 74.6342 60.2439 75.1956 59.9371Z" fill="#81B2D9"/>
<path d="M81.931 63.1112C82.9221 63.1112 83.8496 62.8996 84.5429 62.514C85.9864 61.7189 85.9864 60.428 84.5429 59.6342C83.1472 58.8654 80.7081 58.8654 79.3123 59.6342C77.8711 60.428 77.8711 61.7189 79.3123 62.514C80.0216 62.8996 80.9467 63.1112 81.931 63.1112ZM80.9263 60.5182C81.1945 60.3717 81.5514 60.2878 81.931 60.2878C82.3106 60.2878 82.6698 60.3692 82.938 60.5182C83.4904 60.8237 83.4904 61.3233 82.938 61.6288C82.4016 61.923 81.4605 61.923 80.9195 61.6288C80.3716 61.322 80.3716 60.8249 80.9263 60.5182Z" fill="#81B2D9"/>
<path d="M149.021 63.1112C150.012 63.1112 150.94 62.8996 151.633 62.514C153.079 61.7189 153.079 60.428 151.633 59.6342C150.237 58.8654 147.796 58.8654 146.403 59.6342C144.957 60.428 144.957 61.7189 146.403 62.514C147.105 62.8996 148.035 63.1112 149.021 63.1112ZM148.016 60.5182C148.282 60.3717 148.642 60.2878 149.019 60.2878C149.401 60.2878 149.758 60.3692 150.024 60.5182C150.578 60.8237 150.578 61.3233 150.024 61.6288C149.489 61.923 148.548 61.923 148.005 61.6288C147.462 61.322 147.462 60.8249 148.016 60.5182Z" fill="#81B2D9"/>
<path d="M174.658 70.109L190.684 78.9325C190.898 79.0527 191.186 79.1153 191.489 79.1153C191.791 79.1153 192.08 79.0489 192.293 78.9325L208.66 69.9162C212.634 68.5201 215 66.1512 215 63.5632C215 59.4038 208.856 56.0206 201.306 56.0206C197.51 56.0206 193.966 56.8695 191.384 58.3733C188.804 56.8695 185.258 56.0206 181.466 56.0206C173.915 56.0206 167.78 59.4038 167.78 63.5632C167.761 66.2652 170.4 68.7656 174.658 70.109ZM181.457 57.2727C185.008 57.2727 188.295 58.1642 190.484 59.7193C190.918 60.0273 191.857 60.0248 192.282 59.7193C194.471 58.1642 197.751 57.2727 201.313 57.2727C207.612 57.2727 212.727 60.0949 212.727 63.5632C212.727 65.7405 210.715 67.7326 207.342 68.8933C207.28 68.9196 207.201 68.9471 207.142 68.9809L191.486 77.604L176.161 69.1662C176.095 69.1249 176.011 69.0873 175.917 69.0611C172.289 67.9467 170.044 65.8445 170.044 63.5632C170.034 60.0949 175.158 57.2727 181.457 57.2727Z" fill="#81B2D9"/>
</svg>
